<svg
  xmlns="http://www.w3.org/2000/svg"
  xmlns:xlink="http://www.w3.org/1999/xlink"
  viewBox="0 0 100 100"
  version="1.1"
>
  <title>running</title>
  <desc>Created with Sketch.</desc>
  <g stroke="none" stroke-width="1" fill="none" fill-rule="evenodd">
    <path
      d="M44.72471,47.178511 C45.2076513,46.5129965 46.1386586,46.3649916 46.8041731,46.8479329 C47.4696876,47.3308742 47.6176924,48.2618815 47.1347512,48.927396 L35.7573275,64.6059903 C35.4772371,64.9919673 35.0292019,65.2204146 34.5523069,65.2204146 L20.6727599,65.2204146 C18.5821553,65.2204146 17.285737,66.634244 17.2590753,68.5292739 C17.232455,70.4213678 18.4802583,71.7962429 20.6727599,71.7962429 L37.1137727,71.7999384 C37.6980948,71.8411846 39.1106729,70.5871247 41.2561953,67.9514886 C41.4774872,67.6796458 41.6305441,67.4894549 42.0072161,67.01905 C43.6965831,64.9067232 44.041901,64.4844891 44.7670019,63.688443 C45.3207208,63.0805473 46.2623955,63.0366283 46.8702912,63.5903472 C47.4781869,64.1440661 47.5221059,65.0857408 46.968387,65.6936365 C46.305986,66.4208479 45.9699621,66.8317179 44.3327009,68.8788935 C43.9511835,69.3553573 43.7932142,69.5516524 43.5655105,69.8313717 C40.6565002,73.4049034 38.9554306,74.9150807 37.0089371,74.7739765 L20.6727599,74.7739765 C16.7614247,74.7739765 14.2323938,71.9873981 14.2816364,68.4873836 C14.3303195,65.0271436 16.883547,62.242681 20.6727599,62.242681 L33.7931532,62.242681 L44.72471,47.178511 Z M65.9504001,70.4701562 C66.9445434,68.5664154 66.6145885,66.7601041 65.1198813,64.8367272 L56.2197666,54.2161442 C55.7723491,53.6822371 55.7549304,52.9094738 56.1778363,52.3559489 L64.3104995,41.7134127 C65.4438089,40.0993053 67.363081,40.1604901 68.4854617,41.6776318 L73.6843346,48.5337199 C74.89102,50.110879 74.9709984,50.1580457 76.3884868,50.1580896 L89.3053828,50.2573035 C90.4124382,50.2573035 91.0264791,49.5695479 91.0222456,48.5658618 C91.0180012,47.5596137 90.3930717,46.8618601 89.3053828,46.8618601 L81.2158733,46.8618601 C78.8354228,46.8618601 77.5394644,46.4159978 76.2195634,44.621844 L70.1250455,35.5204961 C67.9343354,32.6356661 64.5563542,30.9847501 61.5090671,30.9847501 L44.5728331,30.9834727 C43.2692997,31.0375052 42.479629,31.3606707 41.9105813,32.0052226 L34.030115,42.5286525 C33.3915533,43.2961257 33.5832052,44.2506089 34.4230689,44.8653314 C35.3253868,45.5257659 36.4209736,45.3736078 37.3595264,44.1197658 L44.0842414,35.219651 C44.365629,34.8472364 44.8053805,34.628338 45.2721478,34.628338 L51.0252332,34.6287117 C53.924694,34.6936856 55.4772212,37.6103919 53.4155165,40.1170262 L46.8902805,49.2101797 C45.5015683,52.2942029 46.0004205,54.8940946 47.6955508,57.1156598 C48.3062665,57.9160378 48.9108496,58.4634166 49.4537708,58.8680142 L59.065233,68.2230604 C59.5087573,68.6547523 59.6389545,69.315814 59.3922492,69.8834478 L54.0780082,82.1104222 C52.0466153,86.6179508 57.1485894,89.0000263 59.6363947,84.4273428 L65.9504001,70.4701562 Z M67.4362739,62.9663587 C69.6266777,65.7825922 70.178898,68.8056771 68.6267664,71.7727948 L62.3280328,85.7019707 L62.2838776,85.7914951 C58.0238732,93.744877 47.7213737,88.9679952 51.3551414,80.9052274 L56.2520216,69.6382046 L47.5592186,61.1530632 C46.9680687,60.7376061 46.1450963,59.9925015 45.3282566,58.9219863 C43.0144381,55.8895947 42.298071,52.1560707 44.3208327,47.7339416 L51.052783,38.3075172 C51.5314034,37.7243706 51.4743886,37.6172579 50.9918776,37.6060716 L46.0132708,37.6060716 L39.7393687,45.9095152 C37.818606,48.4755735 34.8728646,48.8846863 32.6643372,47.2681963 C30.5149745,45.6950107 29.9330994,42.7970994 31.6937189,40.6841185 L39.5976962,30.1331205 C40.8213252,28.7332059 42.3834139,28.0939353 44.5111714,28.0070166 L61.5090671,28.0070166 C65.4807508,28.0070166 69.7386561,30.0879766 72.5476948,33.7913627 L78.65519,42.9100604 C79.2662145,43.7394739 79.6866665,43.8841265 81.2158733,43.8841265 L89.3053828,43.8841265 C92.1133897,43.8841265 93.9890916,45.9784074 93.9999526,48.5533017 C94.0108561,51.1382737 92.138827,53.235037 89.2939523,53.2349931 L76.3770563,53.1357792 C73.95144,53.1357792 73.0487475,52.6034222 71.3155098,50.3380272 L66.4098405,43.868466 L59.2673848,53.216946 L67.4362739,62.9663587 Z M72.692111,12.9777336 C69.2395844,12.9777336 66.4430062,15.7753445 66.4430062,19.2268383 C66.4430062,22.6783322 69.2395844,25.475943 72.692111,25.475943 C76.1410183,25.475943 78.93708,22.6778156 78.93708,19.2268383 C78.93708,15.775861 76.1410183,12.9777336 72.692111,12.9777336 Z M72.692111,10 C77.7860676,10 81.9148135,14.1317963 81.9148135,19.2268383 C81.9148135,24.3218803 77.7860676,28.4536766 72.692111,28.4536766 C67.5947814,28.4536766 63.4652727,24.3226429 63.4652727,19.2268383 C63.4652727,14.1310337 67.5947814,10 72.692111,10 Z M20.7306603,25.3311921 L34.6846506,25.3311921 C36.6698064,25.3311921 36.6698064,28.3089257 34.6846506,28.3089257 L20.7306603,28.3089257 C18.7455046,28.3089257 18.7455046,25.3311921 20.7306603,25.3311921 Z M8.48886678,37.9203879 L26.086445,37.9203879 C28.0716007,37.9203879 28.0716007,40.8981214 26.086445,40.8981214 L8.48886678,40.8981214 C6.50371107,40.8981214 6.50371107,37.9203879 8.48886678,37.9203879 Z M14.6552567,50.3110681 L28.4107315,50.3110681 C30.3958872,50.3110681 30.3958872,53.2888017 28.4107315,53.2888017 L14.6552567,53.2888017 C12.670101,53.2888017 12.670101,50.3110681 14.6552567,50.3110681 Z M20.7306603,28.3089257 L20.7306603,25.3311921 L34.6846506,25.3311921 L34.6846506,28.3089257 L20.7306603,28.3089257 Z M8.48886678,40.8981214 L8.48886678,37.9203879 L26.086445,37.9203879 L26.086445,40.8981214 L8.48886678,40.8981214 Z"
      fill="#000000"
      fill-rule="nonzero"
    />
  </g>
</svg>
