<svg
  xmlns="http://www.w3.org/2000/svg"
  xmlns:xlink="http://www.w3.org/1999/xlink"
  version="1.1"
  x="0px"
  y="0px"
  viewBox="0 0 100 100"
  enable-background="new 0 0 100 100"
  xml:space="preserve"
>
  <g>
    <path
      d="M90,2.5H10c-4.136,0-7.5,3.364-7.5,7.5v80c0,4.136,3.364,7.5,7.5,7.5h80c4.136,0,7.5-3.364,7.5-7.5V10   C97.5,5.864,94.136,2.5,90,2.5z M92.5,90c0,1.378-1.122,2.5-2.5,2.5H10c-1.378,0-2.5-1.122-2.5-2.5V10c0-1.378,1.122-2.5,2.5-2.5   h80c1.378,0,2.5,1.122,2.5,2.5V90z"
    />
    <path
      d="M82.788,23.578C72.53,18.725,61.498,16.264,50,16.264l0,0l0,0c0,0,0,0-0.001,0c-11.498,0-22.529,2.46-32.788,7.313   c-1.15,0.544-1.708,1.866-1.296,3.07l5.888,17.192c0.236,0.688,0.76,1.24,1.435,1.51c0.675,0.271,1.434,0.234,2.081-0.101   c7.664-3.971,15.967-5.985,24.681-5.985s17.018,2.014,24.681,5.985c0.36,0.187,0.754,0.28,1.15,0.28c0.315,0,0.631-0.06,0.931-0.18   c0.675-0.271,1.199-0.822,1.435-1.51l5.888-17.192C84.496,25.443,83.938,24.122,82.788,23.578z M74.382,39.545   c-6.844-3.119-14.314-4.891-21.882-5.214V31.25c0-1.381-1.119-2.5-2.5-2.5s-2.5,1.119-2.5,2.5v3.082   c-7.567,0.323-15.039,2.095-21.882,5.213l-4.236-12.371c0.781-0.34,1.573-0.647,2.363-0.958l0.52,1.428   c0.369,1.015,1.328,1.646,2.349,1.646c0.284,0,0.573-0.048,0.855-0.151c1.297-0.472,1.966-1.906,1.494-3.204l-0.509-1.398   c2.289-0.719,4.61-1.323,6.963-1.806l0.249,1.409c0.214,1.213,1.269,2.066,2.459,2.066c0.144,0,0.291-0.013,0.437-0.039   c1.36-0.24,2.268-1.537,2.028-2.896l-0.238-1.352c2.358-0.313,4.742-0.512,7.15-0.592v1.34c0,1.381,1.119,2.5,2.5,2.5   s2.5-1.119,2.5-2.5v-1.34c2.408,0.081,4.792,0.279,7.15,0.592l-0.239,1.353c-0.24,1.359,0.668,2.656,2.028,2.896   c0.146,0.026,0.293,0.039,0.437,0.039c1.19,0,2.245-0.854,2.459-2.066l0.249-1.41c2.353,0.482,4.674,1.086,6.963,1.806l-0.509,1.4   c-0.472,1.298,0.197,2.732,1.494,3.204c0.282,0.103,0.571,0.151,0.855,0.151c1.021,0,1.98-0.63,2.349-1.646l0.52-1.43   c0.79,0.311,1.581,0.617,2.362,0.958L74.382,39.545z"
    />
  </g>
</svg>
